<svg xmlns="http://www.w3.org/2000/svg" version="1.1" xmlns:xlink="http://www.w3.org/1999/xlink" xmlns:svgjs="http://svgjs.com/svgjs" width="512" height="512" x="0" y="0" viewBox="0 0 512 512" style="enable-background:new 0 0 512 512" xml:space="preserve" class=""><g><path xmlns="http://www.w3.org/2000/svg" d="m146.135 86.487a16 16 0 0 1 16-16h333.865a16 16 0 0 1 0 32h-333.865a16 16 0 0 1 -16-16zm-33.069 0a56.533 56.533 0 1 1 -56.533-56.533 56.6 56.6 0 0 1 56.533 56.533zm-32 0a24.533 24.533 0 1 0 -24.533 24.534 24.56 24.56 0 0 0 24.533-24.534zm414.934 153.513h-333.865a16 16 0 0 0 0 32h333.865a16 16 0 0 0 0-32zm-382.934 16a56.533 56.533 0 1 1 -56.533-56.534 56.6 56.6 0 0 1 56.533 56.534zm-32 0a24.533 24.533 0 1 0 -24.533 24.533 24.561 24.561 0 0 0 24.533-24.533zm414.934 153.513h-333.865a16 16 0 1 0 0 32h333.865a16 16 0 0 0 0-32zm-382.934 16a56.533 56.533 0 1 1 -56.533-56.533 56.6 56.6 0 0 1 56.533 56.532zm-32 0a24.533 24.533 0 1 0 -24.533 24.534 24.561 24.561 0 0 0 24.533-24.535z" fill="#000000" data-original="#000000" class=""></path></g></svg>