<svg xmlns="http://www.w3.org/2000/svg" version="1.1" xmlns:xlink="http://www.w3.org/1999/xlink" xmlns:svgjs="http://svgjs.com/svgjs" width="512" height="512" x="0" y="0" viewBox="0 0 512 512" style="enable-background:new 0 0 512 512" xml:space="preserve" class=""><g><path xmlns="http://www.w3.org/2000/svg" d="m361.83 332.68a200.56 200.56 0 0 0 43.43-124.39c.23-111.5-90.26-202.29-201.69-202.55s-202.22 90.19-202.46 201.69 90.19 202.22 201.6 202.46a201 201 0 0 0 135.12-51.65l142.68 143.3a17.4 17.4 0 0 0 12.36 5.11 17.5 17.5 0 0 0 12.52-29.89zm-159 42.12c-92.16-.2-166.83-75.28-166.63-167.3s75.19-166.87 167.3-166.67 166.86 75.27 166.67 167.38-75.28 166.79-167.39 166.59z" fill="#000000" data-original="#000000" class=""></path><path xmlns="http://www.w3.org/2000/svg" d="m291.49 93.2a144.89 144.89 0 0 0 -144.4-18.83 146 146 0 0 0 -16.7 8.33 17.55 17.55 0 1 0 17.61 30.3 109.66 109.66 0 0 1 122 8 17.55 17.55 0 0 0 21.49-27.8z" fill="#000000" data-original="#000000" class=""></path></g></svg>